<svg width="111" height="32" viewBox="0 0 111 32" fill="none" xmlns="http://www.w3.org/2000/svg">
<path d="M3.52703 28.3966C3.40846 27.9816 3.20097 27.4777 2.60814 27.4777C2.07459 27.4777 1.83746 27.8334 1.83746 28.1891C1.83746 28.6634 2.16351 28.8709 2.7267 29.1376C3.31954 29.4044 3.94201 29.7305 3.94201 30.4715C3.94201 31.1829 3.31954 31.7461 2.34136 31.7461C2.04495 31.7461 1.80781 31.6868 1.62996 31.6275C1.45211 31.5683 1.36319 31.509 1.27427 31.4793C1.21498 31.3608 1.12606 30.7383 1.06677 30.4122L1.27427 30.3529C1.39283 30.7679 1.74853 31.4793 2.45993 31.4793C2.96384 31.4793 3.28989 31.1829 3.28989 30.7087C3.28989 30.2344 2.90455 29.9972 2.371 29.7305C1.8671 29.4933 1.21498 29.1673 1.21498 28.4262C1.21498 27.7741 1.77817 27.2109 2.69706 27.2109C3.02312 27.2109 3.34918 27.2999 3.61595 27.3591C3.64559 27.5963 3.67523 27.8631 3.73452 28.3077L3.52703 28.3966Z" fill="#65A1A1"/>
<path d="M21.6084 30.5907C21.5491 30.8278 21.4305 31.4503 21.3713 31.6577H17.9032V31.4799C18.5257 31.4206 18.6146 31.3613 18.6146 30.8278V28.2193C18.6146 27.6265 18.5553 27.5968 17.9921 27.5376V27.3301H21.1934C21.1934 27.5079 21.2231 27.9525 21.2527 28.3082L21.0452 28.3379C20.9859 28.0711 20.897 27.8933 20.8081 27.7747C20.7192 27.6265 20.5117 27.5969 20.0374 27.5969H19.5038C19.2667 27.5969 19.2667 27.6265 19.2667 27.8043V29.2864H19.9188C20.5413 29.2864 20.6006 29.2271 20.6895 28.7825H20.897V30.0867H20.6895C20.6006 29.6125 20.5413 29.5532 19.9188 29.5532H19.2667V30.7685C19.2667 31.0946 19.2964 31.2428 19.4446 31.3021C19.5928 31.391 19.8595 31.391 20.156 31.391C20.6599 31.391 20.8674 31.3317 21.0452 31.1835C21.1638 31.0353 21.312 30.7981 21.4009 30.5314L21.6084 30.5907Z" fill="#65A1A1"/>
<path d="M39.7195 31.7167C39.6306 31.7167 39.5416 31.7167 39.4824 31.7167C38.9192 31.6871 38.6227 31.5388 38.2967 31.1239C38.0596 30.7978 37.8224 30.4125 37.6149 30.0864C37.4964 29.9086 37.3778 29.8196 36.9925 29.8196H36.785V30.8571C36.785 31.4203 36.8443 31.4499 37.4074 31.5092V31.6871H35.5104V31.5092C36.0736 31.4499 36.1329 31.4203 36.1329 30.8571V28.219C36.1329 27.6558 36.0736 27.6262 35.5104 27.5669V27.3594H37.3185C37.8521 27.3594 38.2078 27.4187 38.4745 27.5965C38.771 27.7744 38.9488 28.0708 38.9488 28.4561C38.9488 29.0193 38.5635 29.375 38.0596 29.5825C38.1781 29.79 38.4745 30.2346 38.682 30.531C38.9488 30.8867 39.097 31.0646 39.2452 31.2424C39.4231 31.4499 39.5713 31.5092 39.7491 31.5388L39.7195 31.7167ZM37.111 29.5529C37.4667 29.5529 37.7039 29.4936 37.8817 29.375C38.1485 29.1675 38.267 28.9304 38.267 28.545C38.267 27.8336 37.7928 27.5669 37.2592 27.5669C37.0517 27.5669 36.9332 27.5965 36.8739 27.6262C36.8146 27.6558 36.785 27.7447 36.785 27.9226V29.5529H37.111V29.5529Z" fill="#65A1A1"/>
<path d="M58.1565 27.5372C57.6823 27.5965 57.5637 27.6558 57.2969 28.2783C57.0895 28.7229 56.3781 30.3532 55.8149 31.7463H55.5777C55.1035 30.531 54.5106 29.1082 54.0957 28.1597C53.8882 27.6558 53.7696 27.5965 53.3546 27.5669V27.3594H55.1628V27.5669C54.6588 27.6262 54.6588 27.6854 54.7478 27.9819C54.9553 28.4561 55.4592 29.7603 55.9038 30.8274C56.2891 29.9382 56.793 28.7229 57.0005 28.1004C57.1487 27.7151 57.1191 27.6558 56.5263 27.5669V27.3594H58.1269V27.5372H58.1565Z" fill="#65A1A1"/>
<path d="M75.6747 30.5907C75.6154 30.8278 75.4968 31.4503 75.4376 31.6577H71.9695V31.4799C72.592 31.4206 72.6809 31.3613 72.6809 30.8278V28.2193C72.6809 27.6265 72.6216 27.5968 72.0584 27.5376V27.3301H75.2597C75.2597 27.5079 75.2893 27.9525 75.319 28.3082L75.1115 28.3379C75.0522 28.0711 74.9633 27.8933 74.8744 27.7747C74.7558 27.6265 74.5779 27.5969 74.1037 27.5969H73.5701C73.333 27.5969 73.333 27.6265 73.333 27.8043V29.2864H73.9851C74.6076 29.2864 74.6669 29.2271 74.7558 28.7825H74.9633V30.0867H74.7558C74.6669 29.6125 74.6076 29.5532 73.9851 29.5532H73.333V30.7685C73.333 31.0946 73.3626 31.2428 73.5108 31.3021C73.6591 31.391 73.9258 31.391 74.2222 31.391C74.7262 31.391 74.9336 31.3317 75.1115 31.1835C75.2301 31.0353 75.3783 30.7981 75.4672 30.5314L75.6747 30.5907Z" fill="#65A1A1"/>
<path d="M93.8154 31.7167C93.7265 31.7167 93.6376 31.7167 93.5783 31.7167C93.0151 31.6871 92.7187 31.5388 92.3926 31.1239C92.1555 30.7978 91.9184 30.4125 91.7109 30.0864C91.5923 29.9086 91.4737 29.8196 91.0884 29.8196H90.8809V30.8571C90.8809 31.4203 90.9402 31.4499 91.5034 31.5092V31.6871H89.6063V31.5092C90.1695 31.4499 90.2288 31.4203 90.2288 30.8571V28.219C90.2288 27.6558 90.1695 27.6262 89.6063 27.5669V27.3594H91.4145C91.948 27.3594 92.3037 27.4187 92.5705 27.5965C92.8669 27.7744 93.0448 28.0708 93.0448 28.4561C93.0448 29.0193 92.6594 29.375 92.1555 29.5825C92.2741 29.79 92.5705 30.2346 92.778 30.531C93.0448 30.8867 93.193 31.0646 93.3412 31.2424C93.519 31.4499 93.6672 31.5092 93.8451 31.5388L93.8154 31.7167ZM91.1773 29.5529C91.533 29.5529 91.7702 29.4936 91.948 29.375C92.2148 29.1675 92.3334 28.9304 92.3334 28.545C92.3334 27.8336 91.8591 27.5669 91.3255 27.5669C91.1181 27.5669 90.9995 27.5965 90.9402 27.6262C90.8809 27.6558 90.8513 27.7447 90.8513 27.9226V29.5529H91.1773V29.5529Z" fill="#65A1A1"/>
<path d="M87.4128 0.0888672H67.4343V22.2608H87.4128V18.437H71.7027V3.85335H87.4128V0.0888672Z" fill="#107888"/>
<path d="M84.834 13.1904L80.121 9.15918L75.3783 13.1904H84.834Z" fill="#EB2227"/>
<path d="M94.5564 11.3821V0.355469H90.4066V22.0235H94.5564V12.1825V11.3821Z" fill="#107888"/>
<path d="M101.018 11.5899L109.94 0.415039H104.842L96.2164 11.3824L95.8607 11.7974C95.8607 11.7974 96.1275 12.1235 96.2164 12.2124L105.316 22.0238H110.8L101.018 11.5899Z" fill="#107888"/>
<path d="M23.1498 0.0888672V22.2608H18.9111V11.0563L11.9749 19.3856L5.0388 11.0563V22.2608H0.800049V0.0888672L11.9749 12.894L23.1498 0.0888672Z" fill="#107888"/>
<path d="M24.4836 22.3201L36.6071 0.0888672L48.7305 22.3201H44.0471L36.6071 8.95171L29.1967 22.3201H24.4836Z" fill="#EB2227"/>
<path d="M66.0116 18.4964V22.2608H49.9755V0H54.2142V18.4964H66.0116Z" fill="#107888"/>
</svg>
