<svg width="463" height="216" viewBox="0 0 463 216" fill="none" xmlns="http://www.w3.org/2000/svg">
<rect width="463" height="125" fill="#00679A"/>
<rect y="125" width="463" height="91" fill="white"/>
<path d="M90.1718 8.09204C94.8731 8.09204 99.2878 9.00938 103.416 10.844C107.544 12.6787 111.156 15.2014 114.252 18.412C117.348 21.6227 119.813 25.3494 121.648 29.5921C123.597 33.7201 124.686 38.192 124.916 43.008V106.304C124.916 109.629 123.769 112.439 121.476 114.732C119.182 116.911 116.488 118 113.392 118C110.066 118 107.257 116.911 104.964 114.732C102.785 112.439 101.696 109.629 101.696 106.304V44.384C101.696 41.0587 100.549 38.3067 98.2558 36.1281C96.0771 33.8347 93.3825 32.688 90.1718 32.688C86.9611 32.688 84.2091 33.8347 81.9158 36.1281C79.6225 38.3067 78.4758 41.0587 78.4758 44.384V106.304C78.4758 109.629 77.3291 112.439 75.0358 114.732C72.8571 116.911 70.1625 118 66.9518 118C63.7411 118 60.9891 116.911 58.6958 114.732C56.5171 112.439 55.4278 109.629 55.4278 106.304V44.384C55.4278 41.0587 54.2811 38.3067 51.9878 36.1281C49.8091 33.8347 47.0571 32.688 43.7318 32.688C40.5211 32.688 37.7691 33.8347 35.4758 36.1281C33.2971 38.3067 32.2078 41.0587 32.2078 44.384V106.304C32.2078 109.629 31.0611 112.439 28.7678 114.732C26.5891 116.911 23.8371 118 20.5118 118C17.3011 118 14.5491 116.911 12.2558 114.732C10.0771 112.439 8.98779 109.629 8.98779 106.304V43.008C8.98779 38.536 9.84779 34.1787 11.5678 29.9361C13.4025 25.6934 15.8678 21.9667 18.9638 18.7561C22.1745 15.5454 25.9011 12.9654 30.1438 11.016C34.3865 9.06671 38.9158 8.09204 43.7318 8.09204C48.0891 8.09204 52.1598 8.89471 55.9438 10.5001C59.8425 12.1054 63.5118 14.2841 66.9518 17.0361C70.2771 14.3987 73.8318 12.2774 77.6158 10.6721C81.5145 8.95205 85.6998 8.09204 90.1718 8.09204Z" fill="white"/>
<path d="M205.312 42.1481C205.312 42.1481 205.37 42.2627 205.484 42.4921V106.476C205.484 109.687 204.338 112.439 202.044 114.732C199.866 116.911 197.171 118 193.96 118C190.635 118 187.826 116.911 185.532 114.732C183.354 112.439 182.264 109.687 182.264 106.476V86.3521H159.732V106.476C159.732 109.687 158.586 112.439 156.292 114.732C153.999 116.911 151.19 118 147.864 118C144.654 118 141.959 116.911 139.78 114.732C137.602 112.439 136.512 109.687 136.512 106.476V42.1481C136.512 37.4467 137.43 33.0321 139.264 28.9041C141.099 24.7761 143.564 21.164 146.66 18.068C149.756 14.972 153.368 12.564 157.496 10.844C161.739 9.00938 166.211 8.09204 170.912 8.09204C175.614 8.09204 180.028 9.00938 184.156 10.844C188.399 12.564 192.068 14.972 195.164 18.068C198.26 21.164 200.726 24.7761 202.56 28.9041C204.395 33.0321 205.312 37.4467 205.312 42.1481ZM182.264 42.6641C182.264 39.568 181.118 36.9307 178.824 34.752C176.646 32.4587 174.008 31.3121 170.912 31.3121C167.816 31.3121 165.179 32.4587 163 34.752C160.822 36.9307 159.732 39.568 159.732 42.6641V63.1321H182.264V42.6641Z" fill="white"/>
<path d="M272.398 93.9201C275.494 93.9201 278.131 95.0667 280.31 97.3601C282.603 99.5387 283.75 102.233 283.75 105.444C283.75 108.769 282.603 111.579 280.31 113.872C278.131 116.051 275.494 117.14 272.398 117.14H229.226C225.9 117.14 223.148 116.051 220.97 113.872C218.791 111.579 217.587 108.769 217.358 105.444V18.928C217.358 15.7174 218.504 13.0227 220.798 10.844C223.091 8.55072 225.9 7.40405 229.226 7.40405C232.207 7.40405 234.844 8.55072 237.138 10.844C239.546 13.0227 240.75 15.7174 240.75 18.928V93.9201H272.398Z" fill="white"/>
<path d="M348.916 94.7801C352.127 94.7801 354.822 95.9267 357 98.2201C359.294 100.513 360.44 103.208 360.44 106.304C360.44 109.629 359.294 112.439 357 114.732C354.822 116.911 352.127 118 348.916 118H303.164C300.183 118 297.488 116.911 295.08 114.732C292.787 112.439 291.64 109.629 291.64 106.304V19.788C291.64 16.8067 292.73 14.1121 294.908 11.704C297.087 9.29605 299.839 8.09204 303.164 8.09204H348.916C352.127 8.09204 354.822 9.23871 357 11.5321C359.294 13.8254 360.44 16.5774 360.44 19.788C360.44 23.1134 359.294 25.8654 357 28.0441C354.822 30.2227 352.127 31.3121 348.916 31.3121H314.516V47.9961H337.392C340.488 47.9961 343.183 49.1427 345.476 51.4361C347.77 53.7294 348.916 56.4814 348.916 59.6921C348.916 62.9027 347.77 65.6547 345.476 67.9481C343.183 70.1267 340.488 71.2161 337.392 71.2161H314.516V94.7801H348.916Z" fill="white"/>
<path d="M447.122 98.3921C449.415 100.685 450.562 103.437 450.562 106.648C450.562 109.744 449.415 112.496 447.122 114.904C444.828 117.083 442.076 118.172 438.866 118.172C435.77 118.172 433.018 117.083 430.61 114.904L395.694 79.4721V106.476C395.694 109.687 394.547 112.439 392.254 114.732C390.075 116.911 387.323 118 383.998 118C380.787 118 378.035 116.911 375.742 114.732C373.448 112.439 372.302 109.687 372.302 106.476V19.788C372.302 16.692 373.448 13.9974 375.742 11.704C378.035 9.41072 380.787 8.26405 383.998 8.26405C387.323 8.26405 390.075 9.41072 392.254 11.704C394.547 13.9974 395.694 16.692 395.694 19.788V46.792L430.61 11.704C433.018 9.41072 435.77 8.26405 438.866 8.26405C442.076 8.26405 444.828 9.41072 447.122 11.704C449.415 13.9974 450.562 16.7494 450.562 19.96C450.562 23.056 449.415 25.7507 447.122 28.0441L412.034 63.1321L447.122 98.3921Z" fill="white"/>
<path d="M24.8322 157.616C23.2962 157.616 21.9842 158.192 20.8962 159.344C19.8722 160.432 19.3282 161.808 19.2642 163.472C19.3282 164.944 19.8722 166.224 20.8962 167.312C21.9842 168.336 23.2962 168.848 24.8322 168.848H31.3602C33.7282 168.848 36.0002 169.328 38.1762 170.288C40.4162 171.248 42.4002 172.592 44.1282 174.32C45.8562 175.984 47.2322 177.968 48.2562 180.272C49.2802 182.512 49.7922 184.912 49.7922 187.472C49.7922 189.968 49.3122 192.336 48.3522 194.576C47.3922 196.816 46.0802 198.768 44.4162 200.432C42.7522 202.096 40.8002 203.44 38.5602 204.464C36.3202 205.424 33.9202 205.936 31.3602 206H14.2722C12.3522 206 10.7842 205.392 9.5682 204.176C8.3522 202.896 7.7442 201.328 7.7442 199.472C7.7442 197.744 8.3522 196.24 9.5682 194.96C10.8482 193.68 12.4162 193.04 14.2722 193.04H31.3602C32.8322 193.04 34.1442 192.496 35.2962 191.408C36.4482 190.32 37.0242 189.008 37.0242 187.472C37.0242 185.872 36.4482 184.56 35.2962 183.536C34.2082 182.448 32.9282 181.872 31.4562 181.808H24.8322C22.4002 181.744 20.0642 181.232 17.8242 180.272C15.5842 179.312 13.6002 178.032 11.8722 176.432C10.2082 174.768 8.8642 172.816 7.8402 170.576C6.8162 168.336 6.3042 165.904 6.3042 163.28C6.3042 160.912 6.7842 158.608 7.7442 156.368C8.7042 154.128 10.0162 152.144 11.6802 150.416C13.4082 148.688 15.3922 147.312 17.6322 146.288C19.8722 145.2 22.2722 144.656 24.8322 144.656H41.9202C43.6482 144.656 45.1202 145.296 46.3362 146.576C47.5522 147.792 48.2242 149.328 48.3522 151.184C48.3522 153.04 47.7442 154.576 46.5282 155.792C45.3122 157.008 43.7762 157.616 41.9202 157.616H24.8322Z" fill="#3F3F3F"/>
<path d="M86.0779 193.04C87.8699 193.04 89.374 193.68 90.59 194.96C91.87 196.24 92.5099 197.744 92.5099 199.472C92.5099 201.328 91.87 202.896 90.59 204.176C89.374 205.392 87.8699 206 86.0779 206H60.542C58.878 206 57.3739 205.392 56.0299 204.176C54.7499 202.896 54.11 201.328 54.11 199.472V151.184C54.11 149.52 54.7179 148.016 55.9339 146.672C57.1499 145.328 58.686 144.656 60.542 144.656H86.0779C87.8699 144.656 89.374 145.296 90.59 146.576C91.87 147.856 92.5099 149.392 92.5099 151.184C92.5099 153.04 91.87 154.576 90.59 155.792C89.374 157.008 87.8699 157.616 86.0779 157.616H66.8779V166.928H79.646C81.3739 166.928 82.878 167.568 84.158 168.848C85.438 170.128 86.0779 171.664 86.0779 173.456C86.0779 175.248 85.438 176.784 84.158 178.064C82.878 179.28 81.3739 179.888 79.646 179.888H66.8779V193.04H86.0779Z" fill="#3F3F3F"/>
<path d="M134.746 194.96C135.386 195.6 135.834 196.336 136.09 197.168C136.41 197.936 136.57 198.736 136.57 199.568C136.57 200.4 136.41 201.232 136.09 202.064C135.834 202.832 135.386 203.536 134.746 204.176C133.466 205.392 131.93 206 130.138 206C128.41 206 126.906 205.392 125.626 204.176L109.882 188.432V199.472C109.882 201.328 109.242 202.896 107.962 204.176C106.682 205.392 105.146 206 103.354 206C101.626 206 100.122 205.392 98.8422 204.176C97.5622 202.896 96.9222 201.328 96.9222 199.472V166.448C96.9862 163.568 97.5622 160.816 98.6502 158.192C99.8022 155.504 101.37 153.168 103.354 151.184C105.338 149.2 107.642 147.632 110.266 146.48C112.89 145.264 115.738 144.656 118.81 144.656C121.626 144.656 124.346 145.232 126.97 146.384C129.594 147.536 131.898 149.104 133.882 151.088C135.866 153.008 137.434 155.312 138.586 158C139.802 160.624 140.41 163.44 140.41 166.448C140.41 171.056 139.162 175.184 136.666 178.832C134.17 182.416 130.842 185.104 126.682 186.896L134.746 194.96ZM118.81 157.616C117.53 157.616 116.346 157.84 115.258 158.288C114.234 158.736 113.306 159.376 112.474 160.208C111.642 160.976 111.002 161.904 110.554 162.992C110.106 164.08 109.882 165.232 109.882 166.448C109.882 167.6 110.106 168.72 110.554 169.808C111.066 170.896 111.706 171.856 112.474 172.688C113.306 173.52 114.266 174.192 115.354 174.704C116.442 175.152 117.594 175.376 118.81 175.376C121.178 175.376 123.226 174.544 124.954 172.88C126.746 171.152 127.642 169.008 127.642 166.448C127.642 165.232 127.386 164.08 126.874 162.992C126.426 161.904 125.786 160.976 124.954 160.208C124.186 159.376 123.258 158.736 122.17 158.288C121.082 157.84 119.962 157.616 118.81 157.616Z" fill="#3F3F3F"/>
<path d="M172.622 201.776C172.11 203.056 171.278 204.08 170.126 204.848C169.038 205.616 167.854 206 166.574 206C165.358 206 164.174 205.584 163.022 204.752C161.87 203.92 161.038 202.928 160.526 201.776L141.71 153.488C141.07 151.824 141.102 150.192 141.806 148.592C142.574 146.928 143.79 145.744 145.454 145.04C147.118 144.4 148.75 144.464 150.35 145.232C152.014 145.936 153.166 147.152 153.806 148.88L166.574 181.712L179.342 148.88C179.982 147.152 181.102 145.936 182.702 145.232C184.366 144.464 186.03 144.4 187.694 145.04C189.358 145.744 190.542 146.928 191.246 148.592C191.95 150.192 191.982 151.824 191.342 153.488L172.622 201.776Z" fill="#3F3F3F"/>
<path d="M227.948 193.04C229.74 193.04 231.244 193.68 232.46 194.96C233.74 196.24 234.38 197.744 234.38 199.472C234.38 201.328 233.74 202.896 232.46 204.176C231.244 205.392 229.74 206 227.948 206H202.412C200.748 206 199.244 205.392 197.9 204.176C196.62 202.896 195.98 201.328 195.98 199.472V151.184C195.98 149.52 196.588 148.016 197.804 146.672C199.02 145.328 200.556 144.656 202.412 144.656H227.948C229.74 144.656 231.244 145.296 232.46 146.576C233.74 147.856 234.38 149.392 234.38 151.184C234.38 153.04 233.74 154.576 232.46 155.792C231.244 157.008 229.74 157.616 227.948 157.616H208.748V166.928H221.516C223.244 166.928 224.748 167.568 226.028 168.848C227.308 170.128 227.948 171.664 227.948 173.456C227.948 175.248 227.308 176.784 226.028 178.064C224.748 179.28 223.244 179.888 221.516 179.888H208.748V193.04H227.948Z" fill="#3F3F3F"/>
<path d="M276.616 194.96C277.256 195.6 277.704 196.336 277.96 197.168C278.28 197.936 278.44 198.736 278.44 199.568C278.44 200.4 278.28 201.232 277.96 202.064C277.704 202.832 277.256 203.536 276.616 204.176C275.336 205.392 273.8 206 272.008 206C270.28 206 268.776 205.392 267.496 204.176L251.752 188.432V199.472C251.752 201.328 251.112 202.896 249.832 204.176C248.552 205.392 247.016 206 245.224 206C243.496 206 241.992 205.392 240.712 204.176C239.432 202.896 238.792 201.328 238.792 199.472V166.448C238.856 163.568 239.432 160.816 240.52 158.192C241.672 155.504 243.24 153.168 245.224 151.184C247.208 149.2 249.512 147.632 252.136 146.48C254.76 145.264 257.608 144.656 260.68 144.656C263.496 144.656 266.216 145.232 268.84 146.384C271.464 147.536 273.768 149.104 275.752 151.088C277.736 153.008 279.304 155.312 280.456 158C281.672 160.624 282.28 163.44 282.28 166.448C282.28 171.056 281.032 175.184 278.536 178.832C276.04 182.416 272.712 185.104 268.552 186.896L276.616 194.96ZM260.68 157.616C259.4 157.616 258.216 157.84 257.128 158.288C256.104 158.736 255.176 159.376 254.344 160.208C253.512 160.976 252.872 161.904 252.424 162.992C251.976 164.08 251.752 165.232 251.752 166.448C251.752 167.6 251.976 168.72 252.424 169.808C252.936 170.896 253.576 171.856 254.344 172.688C255.176 173.52 256.136 174.192 257.224 174.704C258.312 175.152 259.464 175.376 260.68 175.376C263.048 175.376 265.096 174.544 266.824 172.88C268.616 171.152 269.512 169.008 269.512 166.448C269.512 165.232 269.256 164.08 268.744 162.992C268.296 161.904 267.656 160.976 266.824 160.208C266.056 159.376 265.128 158.736 264.04 158.288C262.952 157.84 261.832 157.616 260.68 157.616Z" fill="#3F3F3F"/>
</svg>
