<?xml version="1.0" encoding="utf-8"?>
<!-- Generator: Adobe Illustrator 22.0.0, SVG Export Plug-In . SVG Version: 6.00 Build 0)  -->
<svg version="1.0" id="Layer_1" xmlns="http://www.w3.org/2000/svg" xmlns:xlink="http://www.w3.org/1999/xlink" x="0px" y="0px"
	 viewBox="0 0 566.9 566.9" style="enable-background:new 0 0 566.9 566.9;" xml:space="preserve">
<style type="text/css">
	.st0{fill:#65A1A1;}
	.st1{fill:#107888;}
	.st2{fill:#EB2227;}
	.st3{clip-path:url(#SVGID_2_);fill:#107888;}
	.st4{clip-path:url(#SVGID_2_);fill:#EB2227;}
</style>
<g>
	<path class="st0" d="M116,315.3c-0.4-1.4-1.1-3.1-3.1-3.1c-1.8,0-2.6,1.2-2.6,2.4c0,1.6,1.1,2.3,3,3.2c2,0.9,4.1,2,4.1,4.5
		c0,2.4-2.1,4.3-5.4,4.3c-1,0-1.8-0.2-2.4-0.4c-0.6-0.2-0.9-0.4-1.2-0.5c-0.2-0.4-0.5-2.5-0.7-3.6l0.7-0.2c0.4,1.4,1.6,3.8,4,3.8
		c1.7,0,2.8-1,2.8-2.6c0-1.6-1.3-2.4-3.1-3.3c-1.7-0.8-3.9-1.9-3.9-4.4c0-2.2,1.9-4.1,5-4.1c1.1,0,2.2,0.3,3.1,0.5
		c0.1,0.8,0.2,1.7,0.4,3.2L116,315.3z"/>
	<path class="st0" d="M177,322.7c-0.2,0.8-0.6,2.9-0.8,3.6h-11.7v-0.6c2.1-0.2,2.4-0.4,2.4-2.2v-8.8c0-2-0.2-2.1-2.1-2.3v-0.7h10.8
		c0,0.6,0.1,2.1,0.2,3.3l-0.7,0.1c-0.2-0.9-0.5-1.5-0.8-1.9c-0.3-0.5-1-0.6-2.6-0.6h-1.8c-0.8,0-0.8,0.1-0.8,0.7v5h2.2
		c2.1,0,2.3-0.2,2.6-1.7h0.7v4.4h-0.7c-0.3-1.6-0.5-1.8-2.6-1.8h-2.2v4.1c0,1.1,0.1,1.6,0.6,1.8c0.5,0.3,1.4,0.3,2.4,0.3
		c1.7,0,2.4-0.2,3-0.7c0.4-0.5,0.9-1.3,1.2-2.2L177,322.7z"/>
	<path class="st0" d="M238.1,326.5c-0.3,0-0.6,0-0.8,0c-1.9-0.1-2.9-0.6-4-2c-0.8-1.1-1.6-2.4-2.3-3.5c-0.4-0.6-0.8-0.9-2.1-0.9
		h-0.7v3.5c0,1.9,0.2,2,2.1,2.2v0.6h-6.4v-0.6c1.9-0.2,2.1-0.3,2.1-2.2v-8.9c0-1.9-0.2-2-2.1-2.2v-0.7h6.1c1.8,0,3,0.2,3.9,0.8
		c1,0.6,1.6,1.6,1.6,2.9c0,1.9-1.3,3.1-3,3.8c0.4,0.7,1.4,2.2,2.1,3.2c0.9,1.2,1.4,1.8,1.9,2.4c0.6,0.7,1.1,0.9,1.7,1L238.1,326.5z
		 M229.3,319.2c1.2,0,2-0.2,2.6-0.6c0.9-0.7,1.3-1.5,1.3-2.8c0-2.4-1.6-3.3-3.4-3.3c-0.7,0-1.1,0.1-1.3,0.2c-0.2,0.1-0.3,0.4-0.3,1
		v5.5H229.3z"/>
	<path class="st0" d="M300.3,312.4c-1.6,0.2-2,0.4-2.9,2.5c-0.7,1.5-3.1,7-5,11.7h-0.8c-1.6-4.1-3.6-8.9-5-12.1
		c-0.7-1.7-1.1-1.9-2.5-2v-0.7h6.1v0.7c-1.7,0.2-1.7,0.4-1.4,1.4c0.7,1.6,2.4,6,3.9,9.6h0c1.3-3,3-7.1,3.7-9.2
		c0.5-1.3,0.4-1.5-1.6-1.8v-0.7h5.4V312.4z"/>
	<path class="st0" d="M359.4,322.7c-0.2,0.8-0.6,2.9-0.8,3.6h-11.7v-0.6c2.1-0.2,2.4-0.4,2.4-2.2v-8.8c0-2-0.2-2.1-2.1-2.3v-0.7H358
		c0,0.6,0.1,2.1,0.2,3.3l-0.7,0.1c-0.2-0.9-0.5-1.5-0.8-1.9c-0.4-0.5-1-0.6-2.6-0.6h-1.8c-0.8,0-0.8,0.1-0.8,0.7v5h2.2
		c2.1,0,2.3-0.2,2.6-1.7h0.7v4.4h-0.7c-0.3-1.6-0.5-1.8-2.6-1.8h-2.2v4.1c0,1.1,0.1,1.6,0.6,1.8c0.5,0.3,1.4,0.3,2.4,0.3
		c1.7,0,2.4-0.2,3-0.7c0.4-0.5,0.9-1.3,1.2-2.2L359.4,322.7z"/>
	<path class="st0" d="M420.6,326.5c-0.3,0-0.6,0-0.8,0c-1.9-0.1-2.9-0.6-4-2c-0.8-1.1-1.6-2.4-2.3-3.5c-0.4-0.6-0.8-0.9-2.1-0.9
		h-0.7v3.5c0,1.9,0.2,2,2.1,2.2v0.6h-6.4v-0.6c1.9-0.2,2.1-0.3,2.1-2.2v-8.9c0-1.9-0.2-2-2.1-2.2v-0.7h6.1c1.8,0,3,0.2,3.9,0.8
		c1,0.6,1.6,1.6,1.6,2.9c0,1.9-1.3,3.1-3,3.8c0.4,0.7,1.4,2.2,2.1,3.2c0.9,1.2,1.4,1.8,1.9,2.4c0.6,0.7,1.1,0.9,1.7,1L420.6,326.5z
		 M411.7,319.2c1.2,0,2-0.2,2.6-0.6c0.9-0.7,1.3-1.5,1.3-2.8c0-2.4-1.6-3.3-3.4-3.3c-0.7,0-1.1,0.1-1.3,0.2c-0.2,0.1-0.3,0.4-0.3,1
		v5.5H411.7z"/>
</g>
<polygon class="st1" points="399,219.8 331.6,219.8 331.6,294.6 399,294.6 399,281.7 346,281.7 346,232.5 399,232.5 "/>
<polygon class="st2" points="390.3,264 374.4,250.4 358.4,264 "/>
<polygon class="st1" points="423.1,257.9 423.1,220.7 409.1,220.7 409.1,293.8 423.1,293.8 423.1,260.6 "/>
<g>
	<defs>
		<rect id="SVGID_1_" width="566.9" height="566.9"/>
	</defs>
	<clipPath id="SVGID_2_">
		<use xlink:href="#SVGID_1_"  style="overflow:visible;"/>
	</clipPath>
	<path class="st3" d="M444.9,258.6l30.1-37.7h-17.2l-29.1,37l-1.2,1.4c0,0,0.9,1.1,1.2,1.4l30.7,33.1h18.5L444.9,258.6z"/>
	<polygon class="st3" points="182.2,219.8 182.2,294.6 167.9,294.6 167.9,256.8 144.5,284.9 121.1,256.8 121.1,294.6 106.8,294.6 
		106.8,219.8 144.5,263 	"/>
	<polygon class="st4" points="186.7,294.8 227.6,219.8 268.5,294.8 252.7,294.8 227.6,249.7 202.6,294.8 	"/>
	<polygon class="st3" points="326.8,281.9 326.8,294.6 272.7,294.6 272.7,219.5 287,219.5 287,281.9 	"/>
</g>
</svg>
