<svg id="Layer_1" data-name="Layer 1" xmlns="http://www.w3.org/2000/svg" viewBox="0 0 375.45 114.65"><defs><style>.cls-1{font-size:31.33px;fill:#65a1a1;font-family:Swiss721BT-LightExtended, Swiss721BT LightExtended;font-weight:300;}.cls-2{fill:#107888;}.cls-3{fill:#eb2227;}</style></defs><text class="cls-1" transform="translate(0 106.81) scale(1.04 1)">SERVER</text><polygon class="cls-2" points="292.16 0.33 224.84 0.33 224.84 75.15 292.16 75.15 292.16 62.27 239.15 62.27 239.15 13.01 292.16 13.01 292.16 0.33"/><polygon class="cls-3" points="283.54 44.57 267.59 30.92 251.63 44.57 283.54 44.57"/><polygon class="cls-2" points="316.29 38.4 316.29 1.25 302.31 1.25 302.31 74.34 316.29 74.34 316.29 41.09 316.29 38.4"/><path class="cls-2" d="M444.87,258.57l30.06-37.74H457.75l-29.05,37-1.17,1.44s.91,1.14,1.17,1.39l30.65,33.12h18.47Z" transform="translate(-106.81 -219.48)"/><path class="cls-2" d="M182.24,219.81v74.82H167.91V256.76l-23.44,28.15-23.33-28.15v37.87H106.81V219.81L144.47,263Z" transform="translate(-106.81 -219.48)"/><path class="cls-3" d="M186.65,294.85l40.93-75,40.93,75H252.7l-25.07-45.14-25.07,45.14Z" transform="translate(-106.81 -219.48)"/><path class="cls-2" d="M326.76,281.9v12.73H272.65V219.48H287V281.9Z" transform="translate(-106.81 -219.48)"/></svg>