<svg width="44" height="18" viewBox="0 0 44 18" fill="none" xmlns="http://www.w3.org/2000/svg">
<path d="M10.5345 7.45215C10.7456 7.89295 10.9424 8.35886 11.125 8.84988C11.3133 9.34089 11.4759 9.81517 11.6128 10.2727C11.7498 10.7247 11.8582 11.1348 11.9381 11.503C12.0179 11.8713 12.0579 12.1531 12.0579 12.3484C12.0579 12.8617 11.958 13.3192 11.7583 13.721C11.5643 14.1283 11.2962 14.4826 10.9539 14.7839C10.6115 15.0852 10.2064 15.3419 9.73858 15.5539C9.27643 15.766 8.78005 15.9389 8.24944 16.0728C7.72453 16.2068 7.1768 16.3016 6.60625 16.3574C6.0357 16.4188 5.47085 16.4495 4.91171 16.4495C4.26699 16.4495 3.69929 16.3686 3.20861 16.2068C2.71794 16.0505 2.30714 15.8301 1.97622 15.5456C1.65101 15.2666 1.40282 14.9318 1.23165 14.5412C1.06619 14.1562 0.983459 13.7321 0.983459 13.269C0.983459 12.8729 1.03196 12.4795 1.12895 12.0889C1.22594 11.6983 1.34576 11.3245 1.4884 10.9674C1.63674 10.6103 1.79079 10.2783 1.95055 9.9714C2.11601 9.65894 2.2672 9.38553 2.40413 9.15118L3.48248 9.64499C3.36837 9.85144 3.24285 10.0802 3.10591 10.3313C2.97469 10.5824 2.85202 10.8586 2.73791 11.1599C2.6295 11.4612 2.53821 11.7876 2.46404 12.1391C2.38987 12.4907 2.35278 12.8673 2.35278 13.269C2.35278 13.4978 2.40413 13.707 2.50683 13.8967C2.61524 14.092 2.77499 14.2594 2.9861 14.3989C3.20291 14.5384 3.47107 14.6472 3.79058 14.7253C4.11008 14.8035 4.4838 14.8425 4.91171 14.8425C5.36815 14.8425 5.82745 14.823 6.28959 14.7839C6.75174 14.7504 7.19677 14.6919 7.62469 14.6082C8.0526 14.53 8.45199 14.4268 8.82284 14.2985C9.19941 14.1702 9.52462 14.0139 9.79849 13.8298C10.0724 13.6457 10.2892 13.4308 10.4489 13.1853C10.6087 12.9398 10.6886 12.6608 10.6886 12.3484C10.6886 12.1977 10.6543 11.9662 10.5859 11.6537C10.5174 11.3412 10.4204 10.9869 10.2949 10.5908C10.1751 10.1946 10.0324 9.7789 9.86696 9.34368C9.7015 8.90288 9.52462 8.48161 9.33634 8.07987L10.5345 7.45215ZM7.05984 7.52748H5.34818V5.85356H7.05984V7.52748Z" fill="#A6A6A6"/>
<path d="M18.5451 12.4572H18.0487C17.4097 12.4572 16.879 12.3986 16.4568 12.2814C16.0403 12.1587 15.7066 11.9773 15.4555 11.7374C15.2102 11.4919 15.0362 11.1822 14.9335 10.8084C14.8308 10.4345 14.7794 9.99093 14.7794 9.4776V0.237549H16.0974V9.4776C16.0974 9.71195 16.1259 9.91561 16.183 10.0886C16.2457 10.2615 16.3513 10.4038 16.4996 10.5154C16.648 10.627 16.8477 10.7107 17.0987 10.7665C17.3497 10.8223 17.6664 10.8502 18.0487 10.8502H18.5451V12.4572Z" fill="#A6A6A6"/>
<path d="M22.499 10.1974C22.7557 10.4541 23.0096 10.6521 23.2607 10.7916C23.5174 10.9311 23.7542 11.0343 23.971 11.1013C24.1935 11.1627 24.3904 11.1989 24.5615 11.2101C24.7384 11.2213 24.8753 11.2268 24.9723 11.2268C25.1207 11.2268 25.2348 11.171 25.3147 11.0595C25.3945 10.9479 25.4345 10.7693 25.4345 10.5238C25.4345 10.3006 25.3945 10.083 25.3147 9.87097C25.2405 9.65336 25.1435 9.46086 25.0237 9.29346C24.9039 9.12049 24.7698 8.981 24.6214 8.87498C24.4788 8.76897 24.3362 8.71596 24.1935 8.71596C24.0737 8.71596 23.9453 8.75781 23.8084 8.84151C23.6772 8.91962 23.5402 9.02843 23.3976 9.16792C23.2607 9.30183 23.1152 9.45807 22.9611 9.63662C22.8128 9.81517 22.6587 10.0021 22.499 10.1974ZM18.5451 10.8502C19.1099 10.8502 19.6091 10.7386 20.0428 10.5154C20.4764 10.2867 20.8586 9.96024 21.1896 9.53618C21.4292 9.2293 21.666 8.93078 21.8999 8.64063C22.1395 8.35049 22.382 8.09382 22.6274 7.87063C22.8784 7.64186 23.1323 7.45773 23.389 7.31824C23.6515 7.17874 23.9197 7.109 24.1935 7.109C24.4788 7.109 24.7726 7.20943 25.075 7.4103C25.3831 7.60559 25.6627 7.86505 25.9137 8.18868C26.1648 8.5123 26.3702 8.87777 26.5299 9.28509C26.6897 9.69242 26.7696 10.1053 26.7696 10.5238C26.7696 10.9255 26.7268 11.2715 26.6412 11.5616C26.5613 11.8518 26.4443 12.0917 26.2903 12.2814C26.1362 12.4711 25.948 12.6106 25.7254 12.6999C25.5029 12.7892 25.2519 12.8338 24.9723 12.8338C24.8468 12.8338 24.6671 12.8226 24.4331 12.8003C24.1992 12.7724 23.9311 12.7083 23.6287 12.6078C23.3263 12.5018 22.9954 12.3484 22.6359 12.1475C22.2822 11.9411 21.9227 11.6593 21.5576 11.3022C21.3408 11.4863 21.1011 11.6509 20.8387 11.796C20.5762 11.9355 20.3109 12.0554 20.0428 12.1559C19.7746 12.2563 19.5093 12.3316 19.2468 12.3818C18.9901 12.4321 18.7562 12.4572 18.5451 12.4572C18.3397 12.4572 18.14 12.4237 17.946 12.3567V10.8502H18.5451Z" fill="#A6A6A6"/>
<path d="M38.6228 12.4572C38.5201 12.4572 38.3546 12.4572 38.1264 12.4572C37.8982 12.4572 37.6443 12.4544 37.3647 12.4488C37.0908 12.4432 36.8113 12.4376 36.526 12.4321C36.2464 12.4265 36.0039 12.4153 35.7985 12.3986C35.6616 12.8003 35.4591 13.2021 35.1909 13.6038C34.9285 14.0111 34.5662 14.4101 34.104 14.8007C33.6419 15.1968 33.0656 15.5846 32.3752 15.964C31.6906 16.349 30.8604 16.7257 29.8848 17.0939L29.4226 15.579C30.1872 15.2945 30.8462 15.0099 31.3996 14.7253C31.9587 14.4464 32.4323 14.1674 32.8203 13.8884C33.2139 13.6094 33.5335 13.3332 33.7788 13.0598C34.0241 12.7864 34.2153 12.513 34.3522 12.2396C33.9072 12.167 33.4678 12.0694 33.0342 11.9466C32.6063 11.8239 32.224 11.6676 31.8874 11.4779C31.5508 11.2826 31.2798 11.0455 31.0744 10.7665C30.869 10.4875 30.7663 10.1583 30.7663 9.7789C30.7663 9.54455 30.8005 9.29067 30.869 9.01727C30.9431 8.73828 31.043 8.45929 31.1685 8.18031C31.294 7.90132 31.4395 7.63349 31.605 7.37682C31.7762 7.11458 31.9559 6.88302 32.1442 6.68215C32.3381 6.48128 32.5378 6.32225 32.7432 6.20508C32.9486 6.08233 33.154 6.02095 33.3594 6.02095C33.6561 6.02095 33.9271 6.08511 34.1725 6.21345C34.4178 6.34178 34.6403 6.51475 34.84 6.73236C35.0397 6.94439 35.2137 7.19548 35.3621 7.48563C35.5161 7.77578 35.6445 8.08266 35.7472 8.40629C35.8499 8.72991 35.9269 9.0647 35.9783 9.41064C36.0296 9.751 36.0553 10.0802 36.0553 10.3983V10.8251C36.2322 10.8307 36.449 10.8363 36.7057 10.8418C36.9625 10.8418 37.2192 10.8446 37.476 10.8502C37.7327 10.8502 37.9666 10.8502 38.1777 10.8502C38.3889 10.8502 38.5372 10.8502 38.6228 10.8502V12.4572ZM34.7202 10.7498C34.7259 10.6996 34.7288 10.641 34.7288 10.574C34.7345 10.5071 34.7373 10.4485 34.7373 10.3983C34.7373 10.0914 34.7059 9.77611 34.6432 9.45249C34.5861 9.12328 34.5005 8.82477 34.3864 8.55694C34.2723 8.28353 34.1297 8.06034 33.9585 7.88737C33.7873 7.7144 33.5877 7.62791 33.3594 7.62791C33.2111 7.62791 33.0599 7.70324 32.9058 7.85389C32.7575 7.99897 32.6234 8.1831 32.5036 8.40629C32.3838 8.6239 32.2839 8.85824 32.2041 9.10933C32.1299 9.35484 32.0928 9.57803 32.0928 9.7789C32.0928 9.92398 32.1641 10.0495 32.3068 10.1555C32.4551 10.2615 32.652 10.3536 32.8973 10.4317C33.1426 10.5098 33.4222 10.574 33.736 10.6242C34.0555 10.6745 34.3836 10.7163 34.7202 10.7498Z" fill="#A6A6A6"/>
<path d="M41.7808 9.69521C41.7808 9.32694 41.7123 8.8694 41.5754 8.32259C41.4442 7.77578 41.2502 7.10063 40.9934 6.29714L42.3627 6.17997C42.5054 6.62077 42.6252 7.00856 42.7222 7.34335C42.8192 7.67255 42.8962 7.97107 42.9533 8.23889C43.016 8.50672 43.0588 8.75781 43.0816 8.99216C43.1102 9.22093 43.1244 9.45528 43.1244 9.69521C43.1244 10.0635 43.0331 10.415 42.8506 10.7498C42.668 11.0846 42.4084 11.3803 42.0718 11.637C41.7408 11.888 41.3415 12.0889 40.8736 12.2396C40.4115 12.3846 39.8951 12.4572 39.3246 12.4572H38.6228C38.4174 12.4572 38.2177 12.4237 38.0237 12.3567V10.8502H38.6228H39.3246C39.6954 10.8502 40.032 10.8195 40.3344 10.7581C40.6368 10.6912 40.8936 10.6047 41.1047 10.4987C41.3215 10.3927 41.487 10.2699 41.6011 10.1304C41.7209 9.99093 41.7808 9.84586 41.7808 9.69521ZM40.4029 3.60213H38.6912V1.92821H40.4029V3.60213ZM42.9276 3.60213H41.2159V1.92821H42.9276V3.60213Z" fill="#A6A6A6"/>
</svg>
