<svg width="295" height="221" viewBox="0 0 295 221" fill="none" xmlns="http://www.w3.org/2000/svg">
<path d="M24 0C10.7452 0 0 10.7452 0 24V197C0 210.255 10.7452 221 24 221H271C284.255 221 295 210.255 295 197V24C295 10.7452 284.255 0 271 0H24ZM147.5 116.799L32.5976 18.4074H262.412L147.5 116.799ZM140.325 134.912C144.442 138.437 150.512 138.438 154.63 134.914L183.444 110.261L264.302 202.556H30.6707L111.528 110.261L140.325 134.912ZM276.562 188.605L197.447 98.2622L276.562 30.5348V188.605ZM97.5528 98.2713L18.4375 188.605V30.5532L97.5528 98.2713Z" fill="#1D5D99"/>
</svg>
