<svg width="220" height="220" viewBox="0 0 220 220" fill="none" xmlns="http://www.w3.org/2000/svg">
<path fill-rule="evenodd" clip-rule="evenodd" d="M181.918 51.282C181.918 53.8927 181.144 56.4448 179.693 58.6155C178.243 60.7863 176.181 62.4781 173.769 63.4772C171.357 64.4763 168.703 64.7377 166.143 64.2284C163.582 63.719 161.23 62.4619 159.384 60.6158C157.538 58.7698 156.281 56.4177 155.772 53.8572C155.262 51.2966 155.524 48.6426 156.523 46.2306C157.522 43.8186 159.214 41.757 161.384 40.3066C163.555 38.8562 166.107 38.082 168.718 38.082C172.219 38.082 175.576 39.4727 178.052 41.9482C180.527 44.4237 181.918 47.7811 181.918 51.282ZM110 146.666C102.748 146.666 95.6592 144.516 89.6295 140.487C83.5998 136.458 78.9002 130.731 76.125 124.031C73.3499 117.332 72.6238 109.959 74.0385 102.847C75.4533 95.7343 78.9454 89.201 84.0732 84.0732C89.201 78.9454 95.7343 75.4533 102.847 74.0385C109.959 72.6238 117.332 73.3499 124.031 76.125C130.731 78.9002 136.458 83.5998 140.487 89.6295C144.516 95.6592 146.666 102.748 146.666 110C146.666 119.724 142.803 129.051 135.927 135.927C129.051 142.803 119.724 146.666 110 146.666ZM110 53.513C98.8279 53.513 87.9067 56.8259 78.6175 63.0328C69.3283 69.2396 62.0882 78.0617 57.8128 88.3834C53.5374 98.705 52.4188 110.063 54.5984 121.02C56.7779 131.977 62.1578 142.042 70.0577 149.942C77.9575 157.842 88.0225 163.222 98.9799 165.402C109.937 167.581 121.295 166.463 131.617 162.187C141.938 157.912 150.76 150.672 156.967 141.382C163.174 132.093 166.487 121.172 166.487 110C166.487 102.582 165.026 95.2366 162.187 88.3832C159.349 81.5298 155.188 75.3027 149.943 70.0574C144.697 64.812 138.47 60.6512 131.617 57.8125C124.763 54.9739 117.418 53.5129 110 53.513ZM110 19.82C139.372 19.82 142.85 19.932 154.449 20.461C165.174 20.951 170.999 22.742 174.875 24.249C179.653 26.0127 183.975 28.8245 187.523 32.478C191.177 36.0257 193.989 40.3478 195.752 45.126C197.258 49.002 199.052 54.826 199.54 65.552C200.069 77.152 200.181 80.631 200.181 110.002C200.181 139.373 200.069 142.852 199.54 154.451C199.05 165.176 197.259 171.001 195.752 174.877C193.921 179.621 191.118 183.93 187.522 187.525C183.927 191.121 179.618 193.924 174.874 195.755C170.998 197.261 165.174 199.055 154.448 199.543C142.848 200.072 139.371 200.184 109.999 200.184C80.627 200.184 77.147 200.072 65.549 199.543C54.824 199.053 48.999 197.262 45.123 195.755C40.3452 193.991 36.0233 191.179 32.475 187.526C28.8214 183.978 26.0095 179.656 24.246 174.878C22.74 171.002 20.946 165.178 20.458 154.452C19.929 142.852 19.817 139.373 19.817 110.003C19.817 80.633 19.929 77.153 20.458 65.553C20.948 54.828 22.739 49.003 24.246 45.127C26.0097 40.3492 28.8215 36.0273 32.475 32.479C36.023 28.8247 40.3454 26.0127 45.124 24.25C49 22.744 54.824 20.95 65.55 20.462C77.15 19.932 80.628 19.821 110 19.821V19.82ZM110 0C80.126 0 76.38 0.127 64.647 0.662C52.939 1.197 44.942 3.056 37.947 5.775C30.6066 8.53647 23.9572 12.8665 18.463 18.463C12.8665 23.9572 8.53647 30.6066 5.775 37.947C3.056 44.947 1.196 52.94 0.662 64.647C0.127 76.38 0 80.126 0 110C0 139.874 0.127 143.62 0.662 155.353C1.197 167.061 3.056 175.053 5.775 182.053C8.53647 189.393 12.8665 196.043 18.463 201.537C23.9578 207.133 30.607 211.463 37.947 214.225C44.947 216.944 52.94 218.804 64.647 219.338C76.38 219.873 80.126 220 110 220C139.874 220 143.62 219.873 155.353 219.338C167.061 218.803 175.053 216.944 182.053 214.225C189.36 211.399 195.997 207.077 201.537 201.537C207.077 195.997 211.399 189.36 214.225 182.053C216.944 175.053 218.804 167.06 219.338 155.353C219.873 143.621 220 139.874 220 110C220 80.126 219.873 76.38 219.338 64.647C218.803 52.939 216.944 44.947 214.225 37.947C211.463 30.607 207.133 23.9578 201.537 18.463C196.042 12.8672 189.393 8.53719 182.053 5.775C175.053 3.056 167.06 1.196 155.353 0.662C143.62 0.127 139.874 0 110 0Z" fill="#1D5D99"/>
</svg>
