<svg width="221" height="220" viewBox="0 0 221 220" fill="none" xmlns="http://www.w3.org/2000/svg">
<path fill-rule="evenodd" clip-rule="evenodd" d="M79.8009 55.875C77.6679 50.767 76.0509 50.575 72.8189 50.442C71.7189 50.378 70.4939 50.315 69.1339 50.315C64.9339 50.315 60.5339 51.544 57.8829 54.26C54.6519 57.56 46.6339 65.253 46.6339 81.031C46.6339 96.809 58.1429 112.071 59.6939 114.207C61.3109 116.338 82.1289 149.19 114.453 162.579C139.731 173.055 147.231 172.079 152.984 170.857C161.384 169.047 171.926 162.836 174.578 155.337C177.23 147.838 177.228 141.437 176.451 140.075C175.674 138.713 173.541 137.944 170.31 136.325C167.079 134.706 151.368 126.948 148.394 125.913C145.484 124.813 142.705 125.203 140.508 128.307C137.844 132.25 134.973 136.049 131.908 139.689C129.969 141.758 126.8 142.018 124.15 140.918C114.628 137.284 105.877 131.887 98.3549 125.009C88.8549 116.539 82.3859 106 80.5129 102.83C78.6379 99.597 80.3189 97.72 81.8049 95.976C83.4219 93.97 84.9729 92.549 86.5879 90.676C88.0368 89.1948 89.2372 87.4896 90.1429 85.626C91.2429 83.493 90.4659 81.293 89.6909 79.676C88.9159 78.059 82.4529 62.275 79.8009 55.875ZM110.51 8.1842e-06C90.2406 -0.00781204 70.3637 5.58883 53.0762 16.1714C35.7887 26.7539 21.7638 41.9103 12.5516 59.9653C3.33937 78.0203 -0.701414 98.2708 0.875831 118.479C2.45308 138.687 9.58693 158.065 21.4889 174.472L7.78194 215.342L50.0629 201.829C64.3788 211.258 80.7004 217.209 97.7252 219.209C114.75 221.209 132.006 219.201 148.118 213.347C164.229 207.492 178.748 197.953 190.517 185.49C202.286 173.027 210.979 157.985 215.902 141.565C220.825 125.146 221.842 107.803 218.871 90.9202C215.901 74.0378 209.025 58.0835 198.793 44.3306C188.56 30.5777 175.255 19.4071 159.938 11.7102C144.622 4.01324 127.718 0.00317929 110.576 8.1842e-06H110.512H110.51Z" fill="#1D5D99"/>
</svg>
