<svg width="236" height="238" viewBox="0 0 236 238" fill="none" xmlns="http://www.w3.org/2000/svg">
<path d="M40 71.2466L40.1984 124.081C40.1984 125.718 42.1828 126.561 43.3734 125.42L56.5199 112.72L69.0711 138.17C69.9641 139.956 72.643 139.311 72.643 137.326V86.427L40 71.2466Z" fill="#9EC4D2"/>
<path d="M147.95 20L40 71.2465L72.643 87.9648L179.7 36.2719L147.95 20Z" fill="#9EC4D2"/>
<path d="M145.355 13.4441L117.227 0L0 56.5051V182.711L117.574 237.282L235.198 182.662V56.3563L145.355 13.4441ZM152.698 25.7473L176.51 37.2566L75.2718 86.7167L49.1277 74.2151L152.698 25.7473ZM70.9414 93.7121V128.836L63.4008 113.556C62.607 111.919 61.0195 110.778 59.2336 110.43C58.8863 110.381 58.5887 110.331 58.2414 110.331C56.7531 110.331 55.3145 110.877 54.2727 111.919L46.3848 119.559L46.2359 82.5996L70.9414 93.7121ZM117.227 8.78086L143.57 21.3816L39.7371 70.1973L15.0316 59.4816L117.227 8.78086ZM112.911 224.879L7.88789 177.602V65.4844L38.2984 79.0773L38.4473 124.718C38.4473 127 39.8363 129.084 41.9695 129.977C44.1027 130.87 46.5336 130.423 48.1707 128.836L57.5965 119.757L67.9648 140.742C68.957 142.726 70.9414 143.966 73.0746 143.966C73.5211 143.966 73.9676 143.917 74.4141 143.818C77.0434 143.222 78.8293 140.891 78.8293 138.212V97.2344L112.861 112.464V224.879H112.911ZM117.574 105.172L84.3856 91.4301L185.738 41.523L221.01 58.3902L117.574 105.172ZM227.261 177.602L122.237 224.879V112.464L227.261 65.4844V177.602Z" fill="#464C54"/>
</svg>
