<svg width="274" height="219" viewBox="0 0 274 219" fill="none" xmlns="http://www.w3.org/2000/svg">
<path d="M4.5625 45.6256C2.044 45.6256 0 43.5816 0 41.0631C0 38.5446 2.044 36.5006 4.5625 36.5006C135.816 36.5006 215.04 36.5006 238.016 2.03551C239.139 0.356506 241.219 -0.391746 243.136 0.201379C245.052 0.776254 246.375 2.54651 246.375 4.56313V27.3756C246.375 29.8941 244.331 31.9381 241.812 31.9381C239.294 31.9381 237.25 29.8941 237.25 27.3756V16.6629C204.774 45.6256 126.673 45.6256 4.5625 45.6256Z" fill="#464C54"/>
<path d="M118.433 64.4033C102.191 64.4033 84.7986 64.2756 66.3022 64.1569C46.6561 64.0201 26.0154 63.8741 4.5625 63.8741C2.044 63.8741 0 61.8301 0 59.3116C0 56.7931 2.044 54.7491 4.5625 54.7491C26.0428 54.7491 46.7018 54.895 66.357 55.0228C163.009 55.6524 239.34 56.2091 256.75 37.9134C258.046 36.5629 260.026 36.1341 261.751 36.8276C263.484 37.5119 264.625 39.2001 264.625 41.0616V59.3116C264.625 61.8301 262.581 63.8741 260.062 63.8741C257.544 63.8741 255.5 61.8301 255.5 59.3116V50.1135C233.527 62.3228 186.05 64.4033 118.433 64.4033Z" fill="#9EC4D2"/>
<path d="M136.874 182.5C149.668 182.5 159.687 172.481 159.687 159.688C159.687 149.331 152.651 141.784 138.781 137.258L137.75 136.921C132.549 135.223 127.749 132.942 127.749 127.75C127.749 122.375 131.5 118.625 136.874 118.625C143.298 118.625 147.587 122.074 147.624 122.111C149.567 123.735 152.432 123.48 154.057 121.563C155.681 119.629 155.425 116.764 153.5 115.139C153.226 114.911 146.693 109.5 136.874 109.5C126.463 109.5 118.624 117.348 118.624 127.75C118.624 140.288 130.888 144.294 134.912 145.589L135.944 145.927C145.78 149.139 150.562 153.647 150.562 159.688C150.562 167.489 144.676 173.375 136.874 173.375C128.406 173.375 123.561 167.791 122.274 166.075C120.76 164.049 117.894 163.657 115.887 165.153C113.861 166.668 113.45 169.524 114.965 171.541C116.9 174.123 124.172 182.5 136.874 182.5Z" fill="#9EC4D2"/>
<path d="M136.875 191.625C139.393 191.625 141.438 189.581 141.438 187.062V182.5C141.438 179.982 139.393 177.938 136.875 177.938C134.357 177.938 132.312 179.982 132.312 182.5V187.062C132.312 189.581 134.357 191.625 136.875 191.625Z" fill="#9EC4D2"/>
<path d="M136.875 114.062C139.393 114.062 141.438 112.018 141.438 109.5V104.938C141.438 102.419 139.393 100.375 136.875 100.375C134.357 100.375 132.312 102.419 132.312 104.938V109.5C132.312 112.018 134.357 114.062 136.875 114.062Z" fill="#9EC4D2"/>
<path d="M4.5625 73C2.044 73 0 75.044 0 77.5625C0 80.081 2.044 82.125 4.5625 82.125H264.625V209.875H4.5625C2.044 209.875 0 211.919 0 214.438C0 216.956 2.044 219 4.5625 219H269.188C271.706 219 273.75 216.956 273.75 214.438V77.5625C273.75 75.044 271.706 73 269.188 73H4.5625Z" fill="#464C54"/>
<path d="M0 95.8037V214.438C0 216.956 2.044 219 4.5625 219C7.081 219 9.125 216.956 9.125 214.438V95.8037C9.125 93.2852 7.081 91.2412 4.5625 91.2412C2.044 91.2412 0 93.2852 0 95.8037Z" fill="#464C54"/>
<path d="M101.938 200.75H42.5971C40.3706 200.75 38.4726 199.135 38.0985 196.945C36.748 188.86 31.0631 182.117 23.2795 179.343C21.4636 178.704 20.25 176.989 20.25 175.054V116.955C20.25 115.021 21.4636 113.305 23.2795 112.657C31.0723 109.883 36.748 103.14 38.0985 95.0551C38.4635 92.8651 40.3706 91.25 42.5971 91.25H101.938C104.456 91.25 106.5 93.294 106.5 95.8125C106.5 98.331 104.456 100.375 101.938 100.375H46.2198C43.6465 108.962 37.5328 116.116 29.375 119.985V172.006C37.5236 175.884 43.6465 183.038 46.2198 191.625H101.938C104.456 191.625 106.5 193.669 106.5 196.188C106.5 198.706 104.456 200.75 101.938 200.75Z" fill="#464C54"/>
<path d="M171.812 200.75H231.153C233.379 200.75 235.277 199.135 235.652 196.945C237.002 188.86 242.687 182.117 250.47 179.343C252.286 178.704 253.5 176.989 253.5 175.054V116.955C253.5 115.021 252.286 113.305 250.47 112.657C242.678 109.883 237.002 103.14 235.652 95.0551C235.287 92.8651 233.379 91.25 231.153 91.25H171.812C169.294 91.25 167.25 93.294 167.25 95.8125C167.25 98.331 169.294 100.375 171.812 100.375H227.53C230.094 108.962 236.217 116.116 244.375 119.985V172.006C236.226 175.884 230.103 183.029 227.53 191.616H171.812C169.294 191.616 167.25 193.66 167.25 196.178C167.25 198.697 169.294 200.75 171.812 200.75Z" fill="#464C54"/>
</svg>
