<svg width="217" height="240" viewBox="0 0 217 240" fill="none" xmlns="http://www.w3.org/2000/svg">
<path d="M9.40002 131.6V150.4C9.40002 173.9 28.2 178.6 28.2 178.6C28.2 178.6 47 235 103.4 235" stroke="#464C54" stroke-width="10" stroke-miterlimit="10" stroke-linecap="round"/>
<path d="M206.8 141V141C191.226 141 178.93 128.257 176.266 112.912C169.508 73.9791 150.4 56.4 150.4 56.4C124.12 117.719 40.6969 81.078 29.4572 129.056C27.9455 135.509 22.8274 141 16.2 141H0C0 141 0 139.891 0 103.4C0 37.6 56.4 0 103.4 0C141 0 150.4 18.8 150.4 18.8C188 18.8 206.8 65.8 206.8 103.4V141Z" fill="#464C54"/>
<path d="M112.8 197.4H159.8C180.565 197.4 197.4 180.565 197.4 159.8V131.6" stroke="#9EC4D2" stroke-width="7" stroke-miterlimit="10" stroke-linecap="round"/>
<path d="M108.1 178.6C106.446 178.6 100.354 178.6 98.7 178.6C90.9168 178.6 84.6 184.917 84.6 192.7C84.6 200.483 90.9168 206.8 98.7 206.8C100.354 206.8 106.446 206.8 108.1 206.8C115.883 206.8 122.2 200.483 122.2 192.7C122.2 184.917 115.883 178.6 108.1 178.6Z" fill="#9EC4D2"/>
<path d="M197.4 169.2H178.6V122.2H197.4C207.787 122.2 216.2 130.613 216.2 141V150.4C216.2 160.787 207.787 169.2 197.4 169.2Z" fill="#9EC4D2"/>
</svg>
