<svg width="235" height="236" viewBox="0 0 235 236" fill="none" xmlns="http://www.w3.org/2000/svg">
<path d="M16 46.359H38.9487C40.6488 46.359 42.2793 45.6836 43.4815 44.4814C44.6836 43.2793 45.359 41.6488 45.359 39.9487V17L71 42.641V72H41.641L16 46.359Z" fill="#9EC4D2"/>
<path d="M15.9268 58.7986L2.04347 44.9152C1.20786 44.2248 0.595657 43.3021 0.28418 42.2638C-0.0272977 41.2256 -0.0240764 40.1183 0.293472 39.0819C0.758699 37.9399 1.57389 36.9746 2.62195 36.3248C3.67001 35.675 4.89702 35.3741 6.1268 35.4652H35.2935V6.29856C35.2023 5.06877 35.5033 3.84175 36.1531 2.79369C36.8029 1.74563 37.7681 0.930451 38.9101 0.465224C39.9649 0.00616971 41.1355 -0.116918 42.2626 0.112695C43.3898 0.342308 44.419 0.913479 45.2101 1.74856L58.6268 16.0986C76.3385 5.80098 96.4726 0.405043 116.96 0.465224C142.831 0.375572 168.007 8.83647 188.573 24.5323C209.138 40.2282 223.942 62.2795 230.681 87.2573C237.421 112.235 235.718 138.74 225.839 162.65C215.959 186.561 198.456 206.537 176.051 219.473C153.647 232.409 127.595 237.579 101.948 234.181C76.3015 230.782 52.4963 219.005 34.234 200.68C15.9717 182.355 4.27593 158.509 0.965179 132.851C-2.34557 107.192 2.91426 81.159 15.9268 58.7986ZM41.1268 47.1319H20.2435L43.5768 70.4652H70.2935V43.7486L46.9601 20.4152V41.2986C46.9601 42.8457 46.3456 44.3294 45.2516 45.4233C44.1576 46.5173 42.6739 47.1319 41.1268 47.1319ZM46.9601 117.132C46.9186 132.549 51.9681 147.549 61.3248 159.803C70.6815 172.056 83.8219 180.878 98.7059 184.899C113.59 188.919 129.385 187.913 143.639 182.037C157.892 176.161 169.808 165.744 177.534 152.402C185.261 139.061 188.367 123.542 186.37 108.254C184.373 92.9664 177.385 78.7657 166.491 67.8565C155.596 56.9474 141.405 49.94 126.12 47.9225C123.07 47.5198 120.01 47.3204 116.96 47.3204C104.726 47.3203 92.6475 50.5282 81.9601 56.6986V73.8486L88.4935 80.3819C97.873 73.1091 109.671 69.6834 121.487 70.802C133.303 71.9205 144.249 77.4992 152.097 86.4028C159.945 95.3065 164.106 106.866 163.733 118.729C163.359 130.592 158.48 141.867 150.087 150.259C141.695 158.652 130.42 163.531 118.557 163.904C106.694 164.278 95.1347 160.117 86.2311 152.269C77.3275 144.421 71.7487 133.475 70.6302 121.659C69.5116 109.843 72.9373 98.0447 80.2101 88.6652L73.6768 82.1319H56.5268C50.3171 92.7549 47.0174 104.827 46.9601 117.132ZM81.9601 117.132C81.9601 124.054 84.0128 130.821 87.8587 136.577C91.7045 142.333 97.1708 146.819 103.566 149.468C109.962 152.117 116.999 152.81 123.788 151.459C130.578 150.109 136.814 146.775 141.709 141.881C146.604 136.986 149.937 130.749 151.288 123.96C152.638 117.171 151.945 110.133 149.296 103.738C146.647 97.3425 142.161 91.8763 136.405 88.0305C130.649 84.1846 123.882 82.1319 116.96 82.1319C109.718 82.1692 102.667 84.4518 96.7768 88.6652L121.043 113.049C121.601 113.572 122.046 114.205 122.35 114.907C122.654 115.609 122.811 116.367 122.811 117.132C122.811 117.897 122.654 118.654 122.35 119.357C122.046 120.059 121.601 120.692 121.043 121.215C120.52 121.773 119.887 122.218 119.185 122.522C118.483 122.826 117.725 122.983 116.96 122.983C116.195 122.983 115.438 122.826 114.735 122.522C114.033 122.218 113.4 121.773 112.877 121.215L88.4935 96.9486C84.2801 102.838 81.9974 109.89 81.9601 117.132ZM116.96 222.132C132.946 222.196 148.735 218.609 163.124 211.645C177.514 204.68 190.123 194.522 199.99 181.945C209.858 169.368 216.723 154.704 220.063 139.071C223.403 123.438 223.13 107.249 219.263 91.7373C215.397 76.226 208.04 61.8022 197.753 49.5658C187.466 37.3294 174.521 27.6033 159.905 21.1291C145.289 14.6549 129.387 11.6036 113.412 12.2077C97.438 12.8119 81.8123 17.0556 67.7268 24.6152L80.2101 37.2152C80.7706 37.7361 81.2158 38.3685 81.5172 39.0717C81.8186 39.775 81.9694 40.5335 81.9601 41.2986V43.3986C92.9757 38.1668 104.938 35.5067 116.96 35.5012C123.915 35.498 130.891 36.3833 137.715 38.1731C156.334 43.0566 172.631 54.3605 183.728 70.0898C194.824 85.819 200.008 104.963 198.364 124.142C196.721 143.321 188.355 161.303 174.743 174.915C161.132 188.527 143.149 196.892 123.97 198.536C104.791 200.18 85.6473 194.996 69.918 183.899C54.1887 172.803 42.8848 156.506 38.0013 137.886C36.2115 131.062 35.3263 124.087 35.3294 117.132C35.3349 105.109 37.9951 93.1474 43.2268 82.1319H41.1268C40.3617 82.1412 39.6032 81.9903 38.9 81.6889C38.1967 81.3876 37.5643 80.9423 37.0435 80.3819L24.4435 67.8986C15.9585 83.8818 11.7483 101.787 12.2212 119.876C12.6941 137.966 17.8341 155.626 27.1426 171.144C36.4511 186.662 49.612 199.511 65.3489 208.445C81.0858 217.378 98.8644 222.093 116.96 222.132Z" fill="#464C54"/>
</svg>
