<svg width="734" height="734" viewBox="0 0 734 734" fill="none" xmlns="http://www.w3.org/2000/svg">
<path d="M514.583 324.833C549.503 324.833 577.833 296.503 577.833 261.583C577.833 226.664 549.503 198.333 514.583 198.333C479.664 198.333 451.333 226.664 451.333 261.583C451.333 296.503 479.664 324.833 514.583 324.833Z" fill="#DCDCDC"/>
<path d="M625.271 114H108.729C88.1729 114 71.8333 130.735 71.8333 151.291V582.709C71.8333 603.265 88.1729 620 108.729 620H625.271C645.827 620 662.167 603.265 662.167 582.709V151.291C662.167 130.735 645.827 114 625.271 114ZM489.415 374.511C485.462 369.899 479.401 366.341 472.548 366.341C465.828 366.341 461.084 369.504 455.682 373.852L431.041 394.672C425.902 398.361 421.817 400.865 415.887 400.865C410.221 400.865 405.082 398.757 401.392 395.463C400.074 394.277 397.703 392.036 395.726 390.06L324.833 313.369C319.562 307.308 311.656 303.486 302.828 303.486C293.999 303.486 285.829 307.835 280.69 313.765L114 514.847V171.584C115.318 162.623 122.302 156.167 131.262 156.167H602.606C611.698 156.167 619.078 162.887 619.605 171.979L620 515.11L489.415 374.511Z" fill="#DCDCDC"/>
</svg>
